<?xml version="1.0" encoding="UTF-8" standalone="no"?>
<svg width="121px" height="25px" viewBox="0 0 121 25" version="1.1" xmlns="http://www.w3.org/2000/svg" xmlns:xlink="http://www.w3.org/1999/xlink">
    <!-- Generator: Sketch 3.6.1 (26313) - http://www.bohemiancoding.com/sketch -->
    <title>jacks dark logo</title>
    <desc>Created with Sketch.</desc>
    <defs></defs>
    <g id="Page-1" stroke="none" stroke-width="1" fill="none" fill-rule="evenodd">
        <g id="Jacks-register" transform="translate(-115.000000, -17.000000)">
            <g id="jacks-dark-logo" transform="translate(115.000000, 17.000000)">
                <g id="Group">
                    <g transform="translate(0.000000, 0.246305)" id="Shape">
                        <path d="M24.0763547,10.2339901 C24.3226601,10.320197 24.5935961,10.2339901 24.7413793,10.0123153 C24.9261084,9.75369458 24.8522167,9.38423645 24.5935961,9.21182266 C24.5689655,9.18719212 24.5320197,9.17487685 24.5073892,9.16256158 L24.5073892,9.16256158 L13.0049261,2.2044335 C13.0541872,1.51477833 12.7586207,0.825123153 12.1428571,0.406403941 C11.2438424,-0.209359606 10,0.0123152709 9.38423645,0.92364532 C8.76847291,1.8226601 8.99014778,3.06650246 9.90147783,3.68226601 C10.7635468,4.27339901 11.9334975,4.08866995 12.5738916,3.28817734 L24.0763547,10.2339901 L24.0763547,10.2339901 Z" fill="#03899B"></path>
                        <path d="M5.99753695,23.9162562 C7.72167488,22.820197 8.28817734,20.5788177 7.33990148,18.8054187 L23.953202,2.26600985 C24.3349754,1.89655172 24.4211823,1.30541872 24.1256158,0.837438424 C23.7931034,0.307881773 23.091133,0.147783251 22.5615764,0.480295567 C22.4876847,0.52955665 22.4137931,0.591133005 22.3522167,0.65270936 L22.3522167,0.65270936 L5.72660099,17.2044335 C4.54433498,16.5763547 3.05418719,16.58867 1.84729064,17.3522167 C0.0369458128,18.4975369 -0.504926108,20.8866995 0.640394089,22.6970443 C1.79802956,24.5197044 4.18719212,25.0615764 5.99753695,23.9162562" fill="#47BB94"></path>
                        <path d="M6.3546798,12.0935961 C5.91133005,12.0935961 5.51724138,12.4014778 5.41871921,12.8448276 C5.2955665,13.362069 5.62807882,13.8916256 6.15763547,14.0024631 C6.21921182,14.0147783 6.29310345,14.0270936 6.3546798,14.0270936 L6.3546798,14.0270936 L16.2068966,14.0517241 C16.5517241,15.1477833 17.4507389,16.046798 18.6576355,16.317734 C20.4433498,16.7241379 22.229064,15.591133 22.635468,13.8054187 C23.0418719,12.0197044 21.908867,10.2339901 20.1231527,9.82758621 C18.41133,9.44581281 16.7118227,10.455665 16.2068966,12.1059113 L6.3546798,12.0935961 L6.3546798,12.0935961 Z" fill="#00A59B"></path>
                    </g>
                    <path d="M26.9334975,16.8596059 L27.6847291,16.8596059 C28.226601,16.8596059 28.3990148,17.0689655 28.4729064,17.7832512 C28.6083744,20.6280788 29.8399015,22.7463054 32.8571429,22.7463054 C35.0492611,22.7463054 37.2413793,21.5147783 37.2413793,17.820197 L37.2413793,2.62315271 L32.2167488,2.62315271 C31.6748768,2.62315271 31.3916256,2.31527094 31.3916256,1.77339901 L31.3916256,1.3546798 C31.3916256,0.812807882 31.6625616,0.504926108 32.2167488,0.504926108 L38.7931034,0.504926108 C39.3349754,0.504926108 39.6428571,0.812807882 39.6428571,1.3546798 L39.6428571,17.820197 C39.6428571,23.0172414 36.182266,24.9753695 32.8694581,24.9753695 C29.544335,24.9753695 26.1330049,22.9926108 26.1330049,17.6847291 C26.1083744,17.0935961 26.3916256,16.8596059 26.9334975,16.8596059 L26.9334975,16.8596059 Z" id="Shape" fill="#59595C"></path>
                    <path d="M50.9482759,1.18226601 C51.0837438,0.701970443 51.4285714,0.492610837 51.8719212,0.492610837 L53.0049261,0.492610837 C53.4482759,0.492610837 53.7931034,0.701970443 53.9285714,1.18226601 L62.2044335,23.5591133 C62.3768473,24.1748768 62.1305419,24.5566502 61.5147783,24.5566502 L60.7635468,24.5566502 C60.2832512,24.5566502 59.9384236,24.3472906 59.8029557,23.8669951 L57.2413793,16.8842365 L47.5862069,16.8842365 L45.0492611,23.8669951 C44.9137931,24.3472906 44.5689655,24.5566502 44.08867,24.5566502 L43.3743842,24.5566502 C42.7216749,24.5566502 42.4876847,24.1748768 42.6600985,23.5591133 L50.9482759,1.18226601 L50.9482759,1.18226601 Z M56.5640394,14.8399015 L53.3866995,6.10837438 C53.0049261,4.97536946 52.5,2.95566502 52.5,2.95566502 L52.4261084,2.95566502 C52.4261084,2.95566502 51.8842365,4.97536946 51.5024631,6.10837438 L48.2758621,14.8399015 L56.5640394,14.8399015 L56.5640394,14.8399015 Z" id="Shape" fill="#59595C"></path>
                    <path d="M75.2586207,0.0862068966 C79.5320197,0.0862068966 82.2413793,1.79802956 83.3374384,2.64778325 C83.7438424,2.99261084 83.7438424,3.39901478 83.4729064,3.84236453 L83.1650246,4.28571429 C82.8571429,4.69211823 82.4507389,4.72906404 82.0073892,4.42118227 C80.9852217,3.70689655 78.6576355,2.30295567 75.3325123,2.30295567 C69.4827586,2.30295567 65.6527094,6.68719212 65.6527094,12.3275862 C65.6527094,18.0418719 69.4827586,22.7339901 75.4433498,22.7339901 C79.0394089,22.7339901 81.5394089,20.9852217 82.5985222,20.135468 C83.0049261,19.7906404 83.4236453,19.7906404 83.7561576,20.2339901 L84.0640394,20.6157635 C84.408867,21.0221675 84.3719212,21.4408867 83.9901478,21.8103448 C82.8571429,22.770936 79.8891626,24.9630542 75.3694581,24.9630542 C68.0418719,24.9630542 63.1896552,19.3842365 63.1896552,12.364532 C63.1773399,5.39408867 68.1773399,0.0862068966 75.2586207,0.0862068966 L75.2586207,0.0862068966 Z" id="Shape" fill="#59595C"></path>
                    <path d="M106.293103,21.2438424 L106.699507,20.726601 C107.044335,20.320197 107.413793,20.2832512 107.894089,20.6280788 C108.719212,21.317734 110.738916,22.7093596 113.435961,22.7093596 C116.305419,22.7093596 118.325123,21.0960591 118.325123,18.6083744 C118.325123,12.5492611 106.342365,13.9901478 106.342365,6.5270936 C106.342365,2.5862069 109.667488,0.0985221675 113.866995,0.0985221675 C116.736453,0.0985221675 118.830049,1.29310345 119.716749,1.98275862 C120.123153,2.29064039 120.197044,2.67241379 119.926108,3.11576355 L119.618227,3.65763547 C119.310345,4.17487685 118.866995,4.17487685 118.423645,3.89162562 C117.573892,3.31280788 115.997537,2.35221675 113.805419,2.35221675 C111.071429,2.35221675 108.780788,3.8546798 108.780788,6.39162562 C108.780788,12.179803 120.763547,10.6403941 120.763547,18.3743842 C120.763547,22.0689655 118.029557,24.9753695 113.435961,24.9753695 C109.913793,24.9753695 107.376847,23.2635468 106.391626,22.4384236 C106.046798,22.0935961 105.948276,21.7241379 106.293103,21.2438424 L106.293103,21.2438424 Z" id="Shape" fill="#59595C"></path>
                    <path d="M94.729064,11.0098522 L94.7413793,10.9975369 L103.189655,2.54926108 C103.41133,2.31527094 103.534483,2.0320197 103.534483,1.71182266 C103.534483,1.39162562 103.423645,1.10837438 103.189655,0.874384236 C102.955665,0.640394089 102.684729,0.52955665 102.352217,0.52955665 C102.03202,0.52955665 101.736453,0.65270936 101.477833,0.899014778 L90.2955665,12.0689655 L90.2955665,1.69950739 C90.2955665,1.37931034 90.1847291,1.09605911 89.9507389,0.862068966 C89.7167488,0.628078818 89.4458128,0.517241379 89.1133005,0.517241379 C88.7931034,0.517241379 88.5098522,0.628078818 88.2758621,0.862068966 C88.0418719,1.09605911 87.9310345,1.36699507 87.9310345,1.69950739 L87.9310345,23.3497537 C87.9310345,23.6699507 88.0418719,23.953202 88.2758621,24.1871921 C88.5098522,24.4211823 88.7807882,24.5320197 89.1133005,24.5320197 C89.4334975,24.5320197 89.7167488,24.4211823 89.9507389,24.1871921 C90.1847291,23.953202 90.2955665,23.682266 90.2955665,23.3497537 L90.2955665,15.4310345 L90.3078818,15.4187192 L93.0295567,12.6970443 L93.0418719,12.7216749 L101.37931,24.0270936 C101.6133,24.3596059 101.945813,24.5320197 102.376847,24.5320197 C102.610837,24.5320197 102.844828,24.4581281 103.054187,24.2980296 C103.362069,24.0517241 103.522167,23.7192118 103.522167,23.3128079 C103.522167,23.0788177 103.448276,22.8571429 103.300493,22.6477833 L94.729064,11.0098522 L94.729064,11.0098522 Z" id="Shape" fill="#59595C"></path>
                </g>
            </g>
        </g>
    </g>
</svg>